<?xml version="1.0" encoding="utf-8"?>
<svg xmlns="http://www.w3.org/2000/svg" xmlns:xlink="http://www.w3.org/1999/xlink" width="420" height="310" viewBox="0 0 1680 1240">
<defs>
  <clipPath id="clip080">
    <rect x="0" y="0" width="1680" height="1240"/>
  </clipPath>
</defs>
<path clip-path="url(#clip080)" d="M0 1240 L1680 1240 L1680 0 L0 0  Z" fill="#ffffff" fill-rule="evenodd" fill-opacity="1"/>
<defs>
  <clipPath id="clip081">
    <rect x="336" y="0" width="1177" height="1177"/>
  </clipPath>
</defs>
<path clip-path="url(#clip080)" d="M217.758 302.197 L1081.79 302.197 L1081.79 47.2441 L217.758 47.2441  Z" fill="#ffffff" fill-rule="evenodd" fill-opacity="1"/>
<defs>
  <clipPath id="clip082">
    <rect x="217" y="47" width="865" height="256"/>
  </clipPath>
</defs>
<polyline clip-path="url(#clip080)" style="stroke:#000000; stroke-linecap:round; stroke-linejoin:round; stroke-width:4; stroke-opacity:1; fill:none" points="217.758,302.197 1081.79,302.197 "/>
<polyline clip-path="url(#clip080)" style="stroke:#000000; stroke-linecap:round; stroke-linejoin:round; stroke-width:4; stroke-opacity:1; fill:none" points="356.839,302.197 356.839,283.299 "/>
<polyline clip-path="url(#clip080)" style="stroke:#000000; stroke-linecap:round; stroke-linejoin:round; stroke-width:4; stroke-opacity:1; fill:none" points="428.566,302.197 428.566,283.299 "/>
<polyline clip-path="url(#clip080)" style="stroke:#000000; stroke-linecap:round; stroke-linejoin:round; stroke-width:4; stroke-opacity:1; fill:none" points="494.574,302.197 494.574,283.299 "/>
<polyline clip-path="url(#clip080)" style="stroke:#000000; stroke-linecap:round; stroke-linejoin:round; stroke-width:4; stroke-opacity:1; fill:none" points="572.148,302.197 572.148,283.299 "/>
<polyline clip-path="url(#clip080)" style="stroke:#000000; stroke-linecap:round; stroke-linejoin:round; stroke-width:4; stroke-opacity:1; fill:none" points="683.113,302.197 683.113,283.299 "/>
<polyline clip-path="url(#clip080)" style="stroke:#000000; stroke-linecap:round; stroke-linejoin:round; stroke-width:4; stroke-opacity:1; fill:none" points="923.107,302.197 923.107,283.299 "/>
<path clip-path="url(#clip080)" d="M343.274 326.869 L355.242 358.837 L350.728 358.837 L343.459 339.67 L334.524 358.837 L330.01 358.837 L341.376 333.976 L339.663 329.393 Q338.575 326.476 336.098 326.476 L333.876 326.476 L333.876 322.818 L336.584 322.865 Q341.816 322.934 343.274 326.869 Z" fill="#000000" fill-rule="evenodd" fill-opacity="1" /><path clip-path="url(#clip080)" d="M371.723 327.355 Q368.112 327.355 366.283 330.92 Q364.478 334.462 364.478 341.592 Q364.478 348.698 366.283 352.263 Q368.112 355.804 371.723 355.804 Q375.357 355.804 377.163 352.263 Q378.992 348.698 378.992 341.592 Q378.992 334.462 377.163 330.92 Q375.357 327.355 371.723 327.355 M371.723 323.652 Q377.533 323.652 380.589 328.258 Q383.668 332.842 383.668 341.592 Q383.668 350.318 380.589 354.925 Q377.533 359.508 371.723 359.508 Q365.913 359.508 362.834 354.925 Q359.779 350.318 359.779 341.592 Q359.779 332.842 362.834 328.258 Q365.913 323.652 371.723 323.652 Z" fill="#000000" fill-rule="evenodd" fill-opacity="1" /><path clip-path="url(#clip080)" d="M415.615 326.869 L427.583 358.837 L423.069 358.837 L415.8 339.67 L406.865 358.837 L402.351 358.837 L413.717 333.976 L412.004 329.393 Q410.916 326.476 408.439 326.476 L406.217 326.476 L406.217 322.818 L408.925 322.865 Q414.157 322.934 415.615 326.869 Z" fill="#000000" fill-rule="evenodd" fill-opacity="1" /><path clip-path="url(#clip080)" d="M434.874 354.902 L442.513 354.902 L442.513 328.536 L434.203 330.203 L434.203 325.943 L442.467 324.277 L447.143 324.277 L447.143 354.902 L454.781 354.902 L454.781 358.837 L434.874 358.837 L434.874 354.902 Z" fill="#000000" fill-rule="evenodd" fill-opacity="1" /><path clip-path="url(#clip080)" d="M481.808 326.869 L493.776 358.837 L489.262 358.837 L481.993 339.67 L473.058 358.837 L468.544 358.837 L479.91 333.976 L478.197 329.393 Q477.109 326.476 474.632 326.476 L472.41 326.476 L472.41 322.818 L475.118 322.865 Q480.35 322.934 481.808 326.869 Z" fill="#000000" fill-rule="evenodd" fill-opacity="1" /><path clip-path="url(#clip080)" d="M504.285 354.902 L520.604 354.902 L520.604 358.837 L498.66 358.837 L498.66 354.902 Q501.322 352.147 505.905 347.517 Q510.512 342.865 511.692 341.522 Q513.937 338.999 514.817 337.263 Q515.72 335.504 515.72 333.814 Q515.72 331.059 513.775 329.323 Q511.854 327.587 508.752 327.587 Q506.553 327.587 504.1 328.351 Q501.669 329.115 498.891 330.666 L498.891 325.943 Q501.715 324.809 504.169 324.231 Q506.623 323.652 508.66 323.652 Q514.03 323.652 517.225 326.337 Q520.419 329.022 520.419 333.513 Q520.419 335.642 519.609 337.564 Q518.822 339.462 516.715 342.054 Q516.137 342.726 513.035 345.943 Q509.933 349.138 504.285 354.902 Z" fill="#000000" fill-rule="evenodd" fill-opacity="1" /><path clip-path="url(#clip080)" d="M558.907 326.869 L570.874 358.837 L566.361 358.837 L559.092 339.67 L550.157 358.837 L545.643 358.837 L557.009 333.976 L555.296 329.393 Q554.208 326.476 551.731 326.476 L549.509 326.476 L549.509 322.818 L552.217 322.865 Q557.449 322.934 558.907 326.869 Z" fill="#000000" fill-rule="evenodd" fill-opacity="1" /><path clip-path="url(#clip080)" d="M591.522 340.203 Q594.879 340.92 596.754 343.189 Q598.652 345.457 598.652 348.791 Q598.652 353.906 595.134 356.707 Q591.615 359.508 585.134 359.508 Q582.958 359.508 580.643 359.068 Q578.351 358.652 575.898 357.795 L575.898 353.281 Q577.842 354.416 580.157 354.994 Q582.472 355.573 584.995 355.573 Q589.393 355.573 591.685 353.837 Q593.999 352.101 593.999 348.791 Q593.999 345.735 591.847 344.022 Q589.717 342.286 585.898 342.286 L581.87 342.286 L581.87 338.443 L586.083 338.443 Q589.532 338.443 591.36 337.078 Q593.189 335.689 593.189 333.096 Q593.189 330.434 591.291 329.022 Q589.416 327.587 585.898 327.587 Q583.976 327.587 581.777 328.004 Q579.578 328.42 576.939 329.3 L576.939 325.133 Q579.601 324.393 581.916 324.022 Q584.254 323.652 586.314 323.652 Q591.638 323.652 594.74 326.082 Q597.842 328.49 597.842 332.61 Q597.842 335.48 596.198 337.471 Q594.555 339.439 591.522 340.203 Z" fill="#000000" fill-rule="evenodd" fill-opacity="1" /><path clip-path="url(#clip080)" d="M669.305 326.869 L681.273 358.837 L676.759 358.837 L669.491 339.67 L660.555 358.837 L656.042 358.837 L667.407 333.976 L665.694 329.393 Q664.606 326.476 662.13 326.476 L659.907 326.476 L659.907 322.818 L662.616 322.865 Q667.847 322.934 669.305 326.869 Z" fill="#000000" fill-rule="evenodd" fill-opacity="1" /><path clip-path="url(#clip080)" d="M700.602 328.351 L688.796 346.8 L700.602 346.8 L700.602 328.351 M699.375 324.277 L705.254 324.277 L705.254 346.8 L710.185 346.8 L710.185 350.689 L705.254 350.689 L705.254 358.837 L700.602 358.837 L700.602 350.689 L685 350.689 L685 346.175 L699.375 324.277 Z" fill="#000000" fill-rule="evenodd" fill-opacity="1" /><path clip-path="url(#clip080)" d="M910.04 326.869 L922.008 358.837 L917.494 358.837 L910.226 339.67 L901.29 358.837 L896.777 358.837 L908.142 333.976 L906.429 329.393 Q905.341 326.476 902.865 326.476 L900.642 326.476 L900.642 322.818 L903.351 322.865 Q908.582 322.934 910.04 326.869 Z" fill="#000000" fill-rule="evenodd" fill-opacity="1" /><path clip-path="url(#clip080)" d="M928.536 324.277 L946.892 324.277 L946.892 328.212 L932.818 328.212 L932.818 336.684 Q933.837 336.337 934.855 336.175 Q935.874 335.99 936.892 335.99 Q942.679 335.99 946.059 339.161 Q949.438 342.332 949.438 347.749 Q949.438 353.328 945.966 356.429 Q942.494 359.508 936.175 359.508 Q933.999 359.508 931.73 359.138 Q929.485 358.767 927.077 358.027 L927.077 353.328 Q929.161 354.462 931.383 355.017 Q933.605 355.573 936.082 355.573 Q940.087 355.573 942.424 353.466 Q944.762 351.36 944.762 347.749 Q944.762 344.138 942.424 342.031 Q940.087 339.925 936.082 339.925 Q934.207 339.925 932.332 340.342 Q930.48 340.758 928.536 341.638 L928.536 324.277 Z" fill="#000000" fill-rule="evenodd" fill-opacity="1" /><polyline clip-path="url(#clip080)" style="stroke:#000000; stroke-linecap:round; stroke-linejoin:round; stroke-width:4; stroke-opacity:1; fill:none" points="217.758,302.197 217.758,47.2441 "/>
<polyline clip-path="url(#clip082)" style="stroke:#009af9; stroke-linecap:round; stroke-linejoin:round; stroke-width:4; stroke-opacity:1; fill:none" points="217.758,294.981 220.02,294.981 222.281,294.981 224.543,294.981 226.805,294.981 229.067,294.981 231.329,294.978 233.59,294.971 235.852,294.955 241.081,294.829 246.309,294.443 248.923,294.084 251.537,293.575 254.152,292.885 256.766,291.986 259.38,290.852 261.994,289.46 264.609,287.792 267.223,285.835 269.837,283.578 272.451,281.018 275.065,278.153 277.68,274.987 280.294,271.527 282.908,267.783 285.522,263.768 288.136,259.498 290.751,254.989 293.365,250.26 295.979,245.331 298.593,240.223 303.822,229.556 309.05,218.428 314.279,207.007 319.507,195.45 324.735,183.904 329.964,172.498 335.192,161.347 340.421,150.549 345.649,140.187 350.878,130.326 356.106,121.018 361.334,112.305 363.949,108.18 366.563,104.213 369.177,100.406 371.791,96.7598 374.405,93.2759 377.02,89.9545 379.634,86.7953 382.248,83.7978 384.862,80.9612 387.477,78.2842 390.091,75.7652 392.705,73.4025 397.933,69.1372 403.162,65.4691 406.304,63.5428 409.446,61.8191 412.588,60.2925 415.73,58.9573 418.872,57.8079 422.014,56.8383 425.156,56.0425 428.298,55.4145 434.582,54.6378 440.867,54.4597 447.151,54.8325 453.435,55.7095 459.719,57.0454 466.003,58.7969 472.287,60.9225 478.571,63.3831 484.855,66.1414 491.14,69.1628 497.424,72.4148 503.708,75.867 514.334,82.0826 524.96,88.6691 535.587,95.5204 546.213,102.545 567.466,116.815 588.718,130.993 600.261,138.531 611.805,145.901 623.348,153.076 634.891,160.031 646.434,166.751 657.977,173.224 669.52,179.442 681.063,185.404 691.705,190.671 702.347,195.72 712.989,200.553 723.631,205.175 734.272,209.59 744.914,213.804 755.556,217.822 766.198,221.651 777.607,225.553 789.016,229.253 800.425,232.76 811.834,236.082 823.243,239.228 834.652,242.205 846.061,245.023 857.47,247.688 870.689,250.595 883.907,253.32 897.126,255.873 910.345,258.265 936.782,262.604 963.219,266.411 986.713,269.4 1010.21,272.062 1033.7,274.432 1057.2,276.544 1077.8,278.206 1098.4,279.709 1119,281.069 1139.6,282.301 1184.53,284.599 1229.45,286.455 1274.64,287.967 1319.83,289.193 1369.8,290.285 1419.76,291.158 1467.3,291.827 1514.84,292.371 1613.7,293.204 1696.92,293.682 1798.53,294.086 1891.6,294.338 1977.56,294.503 2064.64,294.625 2162.22,294.723 2250.65,294.786 2351.9,294.839 2445.65,294.874 2538.07,294.9 2627.8,294.919 2719.79,294.933 2820.57,294.945 2966.98,294.957 2997.01,294.959 "/>
<polyline clip-path="url(#clip082)" style="stroke:#008000; stroke-linecap:round; stroke-linejoin:round; stroke-width:4; stroke-opacity:0.3; fill:none" points="356.839,294.981 356.839,119.76 "/>
<polyline clip-path="url(#clip082)" style="stroke:#008000; stroke-linecap:round; stroke-linejoin:round; stroke-width:4; stroke-opacity:0.3; fill:none" points="428.566,294.981 428.566,55.3685 "/>
<polyline clip-path="url(#clip082)" style="stroke:#008000; stroke-linecap:round; stroke-linejoin:round; stroke-width:4; stroke-opacity:0.3; fill:none" points="494.574,294.981 494.574,70.9136 "/>
<polyline clip-path="url(#clip082)" style="stroke:#008000; stroke-linecap:round; stroke-linejoin:round; stroke-width:4; stroke-opacity:0.3; fill:none" points="572.148,294.981 572.148,119.96 "/>
<polyline clip-path="url(#clip082)" style="stroke:#008000; stroke-linecap:round; stroke-linejoin:round; stroke-width:4; stroke-opacity:0.3; fill:none" points="683.113,294.981 683.113,186.435 "/>
<polyline clip-path="url(#clip082)" style="stroke:#008000; stroke-linecap:round; stroke-linejoin:round; stroke-width:4; stroke-opacity:0.3; fill:none" points="923.107,294.981 923.107,260.431 "/>
<path clip-path="url(#clip080)" d="M217.758 1057.99 L1081.79 1057.99 L1081.79 463.096 L217.758 463.096  Z" fill="#ffffff" fill-rule="evenodd" fill-opacity="1"/>
<defs>
  <clipPath id="clip083">
    <rect x="217" y="463" width="865" height="596"/>
  </clipPath>
</defs>
<polyline clip-path="url(#clip080)" style="stroke:#000000; stroke-linecap:round; stroke-linejoin:round; stroke-width:4; stroke-opacity:1; fill:none" points="217.758,1057.99 1081.79,1057.99 "/>
<polyline clip-path="url(#clip080)" style="stroke:#000000; stroke-linecap:round; stroke-linejoin:round; stroke-width:4; stroke-opacity:1; fill:none" points="217.758,1057.99 217.758,1039.09 "/>
<polyline clip-path="url(#clip080)" style="stroke:#000000; stroke-linecap:round; stroke-linejoin:round; stroke-width:4; stroke-opacity:1; fill:none" points="433.765,1057.99 433.765,1039.09 "/>
<polyline clip-path="url(#clip080)" style="stroke:#000000; stroke-linecap:round; stroke-linejoin:round; stroke-width:4; stroke-opacity:1; fill:none" points="649.773,1057.99 649.773,1039.09 "/>
<polyline clip-path="url(#clip080)" style="stroke:#000000; stroke-linecap:round; stroke-linejoin:round; stroke-width:4; stroke-opacity:1; fill:none" points="865.78,1057.99 865.78,1039.09 "/>
<polyline clip-path="url(#clip080)" style="stroke:#000000; stroke-linecap:round; stroke-linejoin:round; stroke-width:4; stroke-opacity:1; fill:none" points="1081.79,1057.99 1081.79,1039.09 "/>
<path clip-path="url(#clip080)" d="M195.142 1083.14 Q191.531 1083.14 189.702 1086.71 Q187.897 1090.25 187.897 1097.38 Q187.897 1104.49 189.702 1108.05 Q191.531 1111.59 195.142 1111.59 Q198.776 1111.59 200.582 1108.05 Q202.411 1104.49 202.411 1097.38 Q202.411 1090.25 200.582 1086.71 Q198.776 1083.14 195.142 1083.14 M195.142 1079.44 Q200.952 1079.44 204.008 1084.05 Q207.086 1088.63 207.086 1097.38 Q207.086 1106.11 204.008 1110.71 Q200.952 1115.3 195.142 1115.3 Q189.332 1115.3 186.253 1110.71 Q183.198 1106.11 183.198 1097.38 Q183.198 1088.63 186.253 1084.05 Q189.332 1079.44 195.142 1079.44 Z" fill="#000000" fill-rule="evenodd" fill-opacity="1" /><path clip-path="url(#clip080)" d="M215.304 1108.75 L220.188 1108.75 L220.188 1114.63 L215.304 1114.63 L215.304 1108.75 Z" fill="#000000" fill-rule="evenodd" fill-opacity="1" /><path clip-path="url(#clip080)" d="M240.373 1083.14 Q236.762 1083.14 234.934 1086.71 Q233.128 1090.25 233.128 1097.38 Q233.128 1104.49 234.934 1108.05 Q236.762 1111.59 240.373 1111.59 Q244.008 1111.59 245.813 1108.05 Q247.642 1104.49 247.642 1097.38 Q247.642 1090.25 245.813 1086.71 Q244.008 1083.14 240.373 1083.14 M240.373 1079.44 Q246.183 1079.44 249.239 1084.05 Q252.318 1088.63 252.318 1097.38 Q252.318 1106.11 249.239 1110.71 Q246.183 1115.3 240.373 1115.3 Q234.563 1115.3 231.484 1110.71 Q228.429 1106.11 228.429 1097.38 Q228.429 1088.63 231.484 1084.05 Q234.563 1079.44 240.373 1079.44 Z" fill="#000000" fill-rule="evenodd" fill-opacity="1" /><path clip-path="url(#clip080)" d="M411.948 1083.14 Q408.337 1083.14 406.508 1086.71 Q404.703 1090.25 404.703 1097.38 Q404.703 1104.49 406.508 1108.05 Q408.337 1111.59 411.948 1111.59 Q415.582 1111.59 417.388 1108.05 Q419.217 1104.49 419.217 1097.38 Q419.217 1090.25 417.388 1086.71 Q415.582 1083.14 411.948 1083.14 M411.948 1079.44 Q417.758 1079.44 420.814 1084.05 Q423.892 1088.63 423.892 1097.38 Q423.892 1106.11 420.814 1110.71 Q417.758 1115.3 411.948 1115.3 Q406.138 1115.3 403.059 1110.71 Q400.004 1106.11 400.004 1097.38 Q400.004 1088.63 403.059 1084.05 Q406.138 1079.44 411.948 1079.44 Z" fill="#000000" fill-rule="evenodd" fill-opacity="1" /><path clip-path="url(#clip080)" d="M432.11 1108.75 L436.994 1108.75 L436.994 1114.63 L432.11 1114.63 L432.11 1108.75 Z" fill="#000000" fill-rule="evenodd" fill-opacity="1" /><path clip-path="url(#clip080)" d="M451.207 1110.69 L467.526 1110.69 L467.526 1114.63 L445.582 1114.63 L445.582 1110.69 Q448.244 1107.94 452.827 1103.31 Q457.434 1098.65 458.615 1097.31 Q460.86 1094.79 461.739 1093.05 Q462.642 1091.29 462.642 1089.6 Q462.642 1086.85 460.698 1085.11 Q458.777 1083.38 455.675 1083.38 Q453.476 1083.38 451.022 1084.14 Q448.591 1084.9 445.814 1086.45 L445.814 1081.73 Q448.638 1080.6 451.091 1080.02 Q453.545 1079.44 455.582 1079.44 Q460.952 1079.44 464.147 1082.13 Q467.341 1084.81 467.341 1089.3 Q467.341 1091.43 466.531 1093.35 Q465.744 1095.25 463.638 1097.84 Q463.059 1098.51 459.957 1101.73 Q456.855 1104.93 451.207 1110.69 Z" fill="#000000" fill-rule="evenodd" fill-opacity="1" /><path clip-path="url(#clip080)" d="M626.914 1083.14 Q623.303 1083.14 621.474 1086.71 Q619.668 1090.25 619.668 1097.38 Q619.668 1104.49 621.474 1108.05 Q623.303 1111.59 626.914 1111.59 Q630.548 1111.59 632.354 1108.05 Q634.182 1104.49 634.182 1097.38 Q634.182 1090.25 632.354 1086.71 Q630.548 1083.14 626.914 1083.14 M626.914 1079.44 Q632.724 1079.44 635.78 1084.05 Q638.858 1088.63 638.858 1097.38 Q638.858 1106.11 635.78 1110.71 Q632.724 1115.3 626.914 1115.3 Q621.104 1115.3 618.025 1110.71 Q614.969 1106.11 614.969 1097.38 Q614.969 1088.63 618.025 1084.05 Q621.104 1079.44 626.914 1079.44 Z" fill="#000000" fill-rule="evenodd" fill-opacity="1" /><path clip-path="url(#clip080)" d="M647.076 1108.75 L651.96 1108.75 L651.96 1114.63 L647.076 1114.63 L647.076 1108.75 Z" fill="#000000" fill-rule="evenodd" fill-opacity="1" /><path clip-path="url(#clip080)" d="M674.992 1084.14 L663.187 1102.59 L674.992 1102.59 L674.992 1084.14 M673.765 1080.07 L679.645 1080.07 L679.645 1102.59 L684.576 1102.59 L684.576 1106.48 L679.645 1106.48 L679.645 1114.63 L674.992 1114.63 L674.992 1106.48 L659.391 1106.48 L659.391 1101.96 L673.765 1080.07 Z" fill="#000000" fill-rule="evenodd" fill-opacity="1" /><path clip-path="url(#clip080)" d="M843.083 1083.14 Q839.472 1083.14 837.643 1086.71 Q835.838 1090.25 835.838 1097.38 Q835.838 1104.49 837.643 1108.05 Q839.472 1111.59 843.083 1111.59 Q846.718 1111.59 848.523 1108.05 Q850.352 1104.49 850.352 1097.38 Q850.352 1090.25 848.523 1086.71 Q846.718 1083.14 843.083 1083.14 M843.083 1079.44 Q848.893 1079.44 851.949 1084.05 Q855.028 1088.63 855.028 1097.38 Q855.028 1106.11 851.949 1110.71 Q848.893 1115.3 843.083 1115.3 Q837.273 1115.3 834.194 1110.71 Q831.139 1106.11 831.139 1097.38 Q831.139 1088.63 834.194 1084.05 Q837.273 1079.44 843.083 1079.44 Z" fill="#000000" fill-rule="evenodd" fill-opacity="1" /><path clip-path="url(#clip080)" d="M863.245 1108.75 L868.129 1108.75 L868.129 1114.63 L863.245 1114.63 L863.245 1108.75 Z" fill="#000000" fill-rule="evenodd" fill-opacity="1" /><path clip-path="url(#clip080)" d="M888.893 1095.48 Q885.745 1095.48 883.893 1097.63 Q882.065 1099.79 882.065 1103.54 Q882.065 1107.26 883.893 1109.44 Q885.745 1111.59 888.893 1111.59 Q892.041 1111.59 893.87 1109.44 Q895.722 1107.26 895.722 1103.54 Q895.722 1099.79 893.87 1097.63 Q892.041 1095.48 888.893 1095.48 M898.176 1080.83 L898.176 1085.09 Q896.416 1084.26 894.611 1083.82 Q892.828 1083.38 891.069 1083.38 Q886.44 1083.38 883.986 1086.5 Q881.555 1089.63 881.208 1095.95 Q882.574 1093.93 884.634 1092.87 Q886.694 1091.78 889.171 1091.78 Q894.379 1091.78 897.389 1094.95 Q900.421 1098.1 900.421 1103.54 Q900.421 1108.86 897.273 1112.08 Q894.125 1115.3 888.893 1115.3 Q882.898 1115.3 879.727 1110.71 Q876.555 1106.11 876.555 1097.38 Q876.555 1089.19 880.444 1084.32 Q884.333 1079.44 890.884 1079.44 Q892.643 1079.44 894.426 1079.79 Q896.231 1080.14 898.176 1080.83 Z" fill="#000000" fill-rule="evenodd" fill-opacity="1" /><path clip-path="url(#clip080)" d="M1059.22 1083.14 Q1055.61 1083.14 1053.78 1086.71 Q1051.97 1090.25 1051.97 1097.38 Q1051.97 1104.49 1053.78 1108.05 Q1055.61 1111.59 1059.22 1111.59 Q1062.85 1111.59 1064.66 1108.05 Q1066.49 1104.49 1066.49 1097.38 Q1066.49 1090.25 1064.66 1086.71 Q1062.85 1083.14 1059.22 1083.14 M1059.22 1079.44 Q1065.03 1079.44 1068.08 1084.05 Q1071.16 1088.63 1071.16 1097.38 Q1071.16 1106.11 1068.08 1110.71 Q1065.03 1115.3 1059.22 1115.3 Q1053.41 1115.3 1050.33 1110.71 Q1047.27 1106.11 1047.27 1097.38 Q1047.27 1088.63 1050.33 1084.05 Q1053.41 1079.44 1059.22 1079.44 Z" fill="#000000" fill-rule="evenodd" fill-opacity="1" /><path clip-path="url(#clip080)" d="M1079.38 1108.75 L1084.26 1108.75 L1084.26 1114.63 L1079.38 1114.63 L1079.38 1108.75 Z" fill="#000000" fill-rule="evenodd" fill-opacity="1" /><path clip-path="url(#clip080)" d="M1104.45 1098.21 Q1101.12 1098.21 1099.19 1100 Q1097.3 1101.78 1097.3 1104.9 Q1097.3 1108.03 1099.19 1109.81 Q1101.12 1111.59 1104.45 1111.59 Q1107.78 1111.59 1109.7 1109.81 Q1111.63 1108.01 1111.63 1104.9 Q1111.63 1101.78 1109.7 1100 Q1107.81 1098.21 1104.45 1098.21 M1099.77 1096.22 Q1096.76 1095.48 1095.07 1093.42 Q1093.41 1091.36 1093.41 1088.4 Q1093.41 1084.26 1096.35 1081.85 Q1099.31 1079.44 1104.45 1079.44 Q1109.61 1079.44 1112.55 1081.85 Q1115.49 1084.26 1115.49 1088.4 Q1115.49 1091.36 1113.8 1093.42 Q1112.13 1095.48 1109.15 1096.22 Q1112.53 1097.01 1114.4 1099.3 Q1116.3 1101.59 1116.3 1104.9 Q1116.3 1109.93 1113.22 1112.61 Q1110.17 1115.3 1104.45 1115.3 Q1098.73 1115.3 1095.65 1112.61 Q1092.6 1109.93 1092.6 1104.9 Q1092.6 1101.59 1094.5 1099.3 Q1096.39 1097.01 1099.77 1096.22 M1098.06 1088.84 Q1098.06 1091.52 1099.73 1093.03 Q1101.42 1094.53 1104.45 1094.53 Q1107.46 1094.53 1109.15 1093.03 Q1110.86 1091.52 1110.86 1088.84 Q1110.86 1086.15 1109.15 1084.65 Q1107.46 1083.14 1104.45 1083.14 Q1101.42 1083.14 1099.73 1084.65 Q1098.06 1086.15 1098.06 1088.84 Z" fill="#000000" fill-rule="evenodd" fill-opacity="1" /><path clip-path="url(#clip080)" d="M650.664 1148.09 L667.119 1192.05 L660.912 1192.05 L650.918 1165.7 L638.633 1192.05 L632.426 1192.05 L648.054 1157.87 L645.698 1151.56 Q644.203 1147.55 640.797 1147.55 L637.741 1147.55 L637.741 1142.52 L641.465 1142.59 Q648.659 1142.68 650.664 1148.09 Z" fill="#000000" fill-rule="evenodd" fill-opacity="1" /><polyline clip-path="url(#clip080)" style="stroke:#000000; stroke-linecap:round; stroke-linejoin:round; stroke-width:4; stroke-opacity:1; fill:none" points="217.758,1057.99 217.758,463.096 "/>
<polyline clip-path="url(#clip080)" style="stroke:#000000; stroke-linecap:round; stroke-linejoin:round; stroke-width:4; stroke-opacity:1; fill:none" points="217.758,1057.99 236.655,1057.99 "/>
<polyline clip-path="url(#clip080)" style="stroke:#000000; stroke-linecap:round; stroke-linejoin:round; stroke-width:4; stroke-opacity:1; fill:none" points="217.758,973.001 236.655,973.001 "/>
<polyline clip-path="url(#clip080)" style="stroke:#000000; stroke-linecap:round; stroke-linejoin:round; stroke-width:4; stroke-opacity:1; fill:none" points="217.758,888.017 236.655,888.017 "/>
<polyline clip-path="url(#clip080)" style="stroke:#000000; stroke-linecap:round; stroke-linejoin:round; stroke-width:4; stroke-opacity:1; fill:none" points="217.758,803.033 236.655,803.033 "/>
<polyline clip-path="url(#clip080)" style="stroke:#000000; stroke-linecap:round; stroke-linejoin:round; stroke-width:4; stroke-opacity:1; fill:none" points="217.758,718.049 236.655,718.049 "/>
<polyline clip-path="url(#clip080)" style="stroke:#000000; stroke-linecap:round; stroke-linejoin:round; stroke-width:4; stroke-opacity:1; fill:none" points="217.758,633.064 236.655,633.064 "/>
<polyline clip-path="url(#clip080)" style="stroke:#000000; stroke-linecap:round; stroke-linejoin:round; stroke-width:4; stroke-opacity:1; fill:none" points="217.758,548.08 236.655,548.08 "/>
<path clip-path="url(#clip080)" d="M135.382 1043.78 Q131.771 1043.78 129.942 1047.35 Q128.137 1050.89 128.137 1058.02 Q128.137 1065.13 129.942 1068.69 Q131.771 1072.23 135.382 1072.23 Q139.016 1072.23 140.822 1068.69 Q142.651 1065.13 142.651 1058.02 Q142.651 1050.89 140.822 1047.35 Q139.016 1043.78 135.382 1043.78 M135.382 1040.08 Q141.192 1040.08 144.248 1044.69 Q147.326 1049.27 147.326 1058.02 Q147.326 1066.75 144.248 1071.35 Q141.192 1075.94 135.382 1075.94 Q129.572 1075.94 126.493 1071.35 Q123.438 1066.75 123.438 1058.02 Q123.438 1049.27 126.493 1044.69 Q129.572 1040.08 135.382 1040.08 Z" fill="#000000" fill-rule="evenodd" fill-opacity="1" /><path clip-path="url(#clip080)" d="M155.544 1069.39 L160.428 1069.39 L160.428 1075.27 L155.544 1075.27 L155.544 1069.39 Z" fill="#000000" fill-rule="evenodd" fill-opacity="1" /><path clip-path="url(#clip080)" d="M180.613 1043.78 Q177.002 1043.78 175.174 1047.35 Q173.368 1050.89 173.368 1058.02 Q173.368 1065.13 175.174 1068.69 Q177.002 1072.23 180.613 1072.23 Q184.248 1072.23 186.053 1068.69 Q187.882 1065.13 187.882 1058.02 Q187.882 1050.89 186.053 1047.35 Q184.248 1043.78 180.613 1043.78 M180.613 1040.08 Q186.423 1040.08 189.479 1044.69 Q192.558 1049.27 192.558 1058.02 Q192.558 1066.75 189.479 1071.35 Q186.423 1075.94 180.613 1075.94 Q174.803 1075.94 171.724 1071.35 Q168.669 1066.75 168.669 1058.02 Q168.669 1049.27 171.724 1044.69 Q174.803 1040.08 180.613 1040.08 Z" fill="#000000" fill-rule="evenodd" fill-opacity="1" /><path clip-path="url(#clip080)" d="M136.609 958.8 Q132.998 958.8 131.169 962.365 Q129.364 965.906 129.364 973.036 Q129.364 980.142 131.169 983.707 Q132.998 987.249 136.609 987.249 Q140.243 987.249 142.049 983.707 Q143.877 980.142 143.877 973.036 Q143.877 965.906 142.049 962.365 Q140.243 958.8 136.609 958.8 M136.609 955.096 Q142.419 955.096 145.475 959.703 Q148.553 964.286 148.553 973.036 Q148.553 981.763 145.475 986.369 Q142.419 990.953 136.609 990.953 Q130.799 990.953 127.72 986.369 Q124.665 981.763 124.665 973.036 Q124.665 964.286 127.72 959.703 Q130.799 955.096 136.609 955.096 Z" fill="#000000" fill-rule="evenodd" fill-opacity="1" /><path clip-path="url(#clip080)" d="M156.771 984.402 L161.655 984.402 L161.655 990.281 L156.771 990.281 L156.771 984.402 Z" fill="#000000" fill-rule="evenodd" fill-opacity="1" /><path clip-path="url(#clip080)" d="M172.65 986.346 L180.289 986.346 L180.289 959.981 L171.979 961.647 L171.979 957.388 L180.243 955.721 L184.919 955.721 L184.919 986.346 L192.558 986.346 L192.558 990.281 L172.65 990.281 L172.65 986.346 Z" fill="#000000" fill-rule="evenodd" fill-opacity="1" /><path clip-path="url(#clip080)" d="M136.979 873.816 Q133.368 873.816 131.54 877.381 Q129.734 880.922 129.734 888.052 Q129.734 895.158 131.54 898.723 Q133.368 902.265 136.979 902.265 Q140.614 902.265 142.419 898.723 Q144.248 895.158 144.248 888.052 Q144.248 880.922 142.419 877.381 Q140.614 873.816 136.979 873.816 M136.979 870.112 Q142.789 870.112 145.845 874.719 Q148.924 879.302 148.924 888.052 Q148.924 896.779 145.845 901.385 Q142.789 905.968 136.979 905.968 Q131.169 905.968 128.09 901.385 Q125.035 896.779 125.035 888.052 Q125.035 879.302 128.09 874.719 Q131.169 870.112 136.979 870.112 Z" fill="#000000" fill-rule="evenodd" fill-opacity="1" /><path clip-path="url(#clip080)" d="M157.141 899.417 L162.025 899.417 L162.025 905.297 L157.141 905.297 L157.141 899.417 Z" fill="#000000" fill-rule="evenodd" fill-opacity="1" /><path clip-path="url(#clip080)" d="M176.238 901.362 L192.558 901.362 L192.558 905.297 L170.613 905.297 L170.613 901.362 Q173.275 898.607 177.859 893.978 Q182.465 889.325 183.646 887.982 Q185.891 885.459 186.771 883.723 Q187.673 881.964 187.673 880.274 Q187.673 877.519 185.729 875.783 Q183.808 874.047 180.706 874.047 Q178.507 874.047 176.053 874.811 Q173.623 875.575 170.845 877.126 L170.845 872.404 Q173.669 871.269 176.123 870.691 Q178.576 870.112 180.613 870.112 Q185.984 870.112 189.178 872.797 Q192.373 875.482 192.373 879.973 Q192.373 882.103 191.562 884.024 Q190.775 885.922 188.669 888.515 Q188.09 889.186 184.988 892.404 Q181.886 895.598 176.238 901.362 Z" fill="#000000" fill-rule="evenodd" fill-opacity="1" /><path clip-path="url(#clip080)" d="M136.03 788.832 Q132.419 788.832 130.59 792.396 Q128.785 795.938 128.785 803.068 Q128.785 810.174 130.59 813.739 Q132.419 817.28 136.03 817.28 Q139.664 817.28 141.47 813.739 Q143.299 810.174 143.299 803.068 Q143.299 795.938 141.47 792.396 Q139.664 788.832 136.03 788.832 M136.03 785.128 Q141.84 785.128 144.896 789.734 Q147.975 794.318 147.975 803.068 Q147.975 811.794 144.896 816.401 Q141.84 820.984 136.03 820.984 Q130.22 820.984 127.141 816.401 Q124.086 811.794 124.086 803.068 Q124.086 794.318 127.141 789.734 Q130.22 785.128 136.03 785.128 Z" fill="#000000" fill-rule="evenodd" fill-opacity="1" /><path clip-path="url(#clip080)" d="M156.192 814.433 L161.076 814.433 L161.076 820.313 L156.192 820.313 L156.192 814.433 Z" fill="#000000" fill-rule="evenodd" fill-opacity="1" /><path clip-path="url(#clip080)" d="M185.428 801.679 Q188.785 802.396 190.66 804.665 Q192.558 806.933 192.558 810.267 Q192.558 815.382 189.039 818.183 Q185.521 820.984 179.039 820.984 Q176.863 820.984 174.549 820.544 Q172.257 820.128 169.803 819.271 L169.803 814.757 Q171.748 815.892 174.062 816.47 Q176.377 817.049 178.9 817.049 Q183.298 817.049 185.59 815.313 Q187.905 813.577 187.905 810.267 Q187.905 807.211 185.752 805.498 Q183.623 803.762 179.803 803.762 L175.775 803.762 L175.775 799.919 L179.988 799.919 Q183.437 799.919 185.266 798.554 Q187.095 797.165 187.095 794.572 Q187.095 791.91 185.197 790.498 Q183.322 789.063 179.803 789.063 Q177.882 789.063 175.683 789.48 Q173.484 789.896 170.845 790.776 L170.845 786.609 Q173.507 785.869 175.822 785.498 Q178.16 785.128 180.22 785.128 Q185.544 785.128 188.646 787.558 Q191.748 789.966 191.748 794.086 Q191.748 796.956 190.104 798.947 Q188.46 800.915 185.428 801.679 Z" fill="#000000" fill-rule="evenodd" fill-opacity="1" /><path clip-path="url(#clip080)" d="M134.896 703.847 Q131.285 703.847 129.456 707.412 Q127.651 710.954 127.651 718.083 Q127.651 725.19 129.456 728.755 Q131.285 732.296 134.896 732.296 Q138.53 732.296 140.336 728.755 Q142.164 725.19 142.164 718.083 Q142.164 710.954 140.336 707.412 Q138.53 703.847 134.896 703.847 M134.896 700.144 Q140.706 700.144 143.762 704.75 Q146.84 709.333 146.84 718.083 Q146.84 726.81 143.762 731.417 Q140.706 736 134.896 736 Q129.086 736 126.007 731.417 Q122.952 726.81 122.952 718.083 Q122.952 709.333 126.007 704.75 Q129.086 700.144 134.896 700.144 Z" fill="#000000" fill-rule="evenodd" fill-opacity="1" /><path clip-path="url(#clip080)" d="M155.058 729.449 L159.942 729.449 L159.942 735.329 L155.058 735.329 L155.058 729.449 Z" fill="#000000" fill-rule="evenodd" fill-opacity="1" /><path clip-path="url(#clip080)" d="M182.974 704.843 L171.169 723.292 L182.974 723.292 L182.974 704.843 M181.748 700.769 L187.627 700.769 L187.627 723.292 L192.558 723.292 L192.558 727.18 L187.627 727.18 L187.627 735.329 L182.974 735.329 L182.974 727.18 L167.373 727.18 L167.373 722.667 L181.748 700.769 Z" fill="#000000" fill-rule="evenodd" fill-opacity="1" /><path clip-path="url(#clip080)" d="M136.377 618.863 Q132.766 618.863 130.938 622.428 Q129.132 625.969 129.132 633.099 Q129.132 640.206 130.938 643.77 Q132.766 647.312 136.377 647.312 Q140.012 647.312 141.817 643.77 Q143.646 640.206 143.646 633.099 Q143.646 625.969 141.817 622.428 Q140.012 618.863 136.377 618.863 M136.377 615.159 Q142.188 615.159 145.243 619.766 Q148.322 624.349 148.322 633.099 Q148.322 641.826 145.243 646.432 Q142.188 651.016 136.377 651.016 Q130.567 651.016 127.489 646.432 Q124.433 641.826 124.433 633.099 Q124.433 624.349 127.489 619.766 Q130.567 615.159 136.377 615.159 Z" fill="#000000" fill-rule="evenodd" fill-opacity="1" /><path clip-path="url(#clip080)" d="M156.539 644.465 L161.424 644.465 L161.424 650.344 L156.539 650.344 L156.539 644.465 Z" fill="#000000" fill-rule="evenodd" fill-opacity="1" /><path clip-path="url(#clip080)" d="M171.655 615.784 L190.011 615.784 L190.011 619.72 L175.937 619.72 L175.937 628.192 Q176.956 627.844 177.974 627.682 Q178.993 627.497 180.011 627.497 Q185.798 627.497 189.178 630.669 Q192.558 633.84 192.558 639.256 Q192.558 644.835 189.085 647.937 Q185.613 651.016 179.294 651.016 Q177.118 651.016 174.849 650.645 Q172.604 650.275 170.197 649.534 L170.197 644.835 Q172.28 645.969 174.502 646.525 Q176.724 647.08 179.201 647.08 Q183.206 647.08 185.544 644.974 Q187.882 642.868 187.882 639.256 Q187.882 635.645 185.544 633.539 Q183.206 631.432 179.201 631.432 Q177.326 631.432 175.451 631.849 Q173.599 632.266 171.655 633.145 L171.655 615.784 Z" fill="#000000" fill-rule="evenodd" fill-opacity="1" /><path clip-path="url(#clip080)" d="M135.22 533.879 Q131.609 533.879 129.78 537.444 Q127.975 540.985 127.975 548.115 Q127.975 555.221 129.78 558.786 Q131.609 562.328 135.22 562.328 Q138.854 562.328 140.66 558.786 Q142.489 555.221 142.489 548.115 Q142.489 540.985 140.66 537.444 Q138.854 533.879 135.22 533.879 M135.22 530.175 Q141.03 530.175 144.086 534.782 Q147.164 539.365 147.164 548.115 Q147.164 556.842 144.086 561.448 Q141.03 566.031 135.22 566.031 Q129.41 566.031 126.331 561.448 Q123.276 556.842 123.276 548.115 Q123.276 539.365 126.331 534.782 Q129.41 530.175 135.22 530.175 Z" fill="#000000" fill-rule="evenodd" fill-opacity="1" /><path clip-path="url(#clip080)" d="M155.382 559.481 L160.266 559.481 L160.266 565.36 L155.382 565.36 L155.382 559.481 Z" fill="#000000" fill-rule="evenodd" fill-opacity="1" /><path clip-path="url(#clip080)" d="M181.03 546.217 Q177.882 546.217 176.03 548.369 Q174.201 550.522 174.201 554.272 Q174.201 557.999 176.03 560.175 Q177.882 562.328 181.03 562.328 Q184.178 562.328 186.007 560.175 Q187.859 557.999 187.859 554.272 Q187.859 550.522 186.007 548.369 Q184.178 546.217 181.03 546.217 M190.312 531.564 L190.312 535.823 Q188.553 534.99 186.748 534.55 Q184.965 534.11 183.206 534.11 Q178.576 534.11 176.123 537.235 Q173.692 540.36 173.345 546.68 Q174.711 544.666 176.771 543.601 Q178.831 542.513 181.308 542.513 Q186.516 542.513 189.525 545.684 Q192.558 548.832 192.558 554.272 Q192.558 559.596 189.41 562.814 Q186.261 566.031 181.03 566.031 Q175.035 566.031 171.863 561.448 Q168.692 556.842 168.692 548.115 Q168.692 539.92 172.581 535.059 Q176.47 530.175 183.021 530.175 Q184.78 530.175 186.562 530.522 Q188.368 530.87 190.312 531.564 Z" fill="#000000" fill-rule="evenodd" fill-opacity="1" /><path clip-path="url(#clip080)" d="M97.0545 777.712 L47.8476 777.712 L47.8476 771.856 L70.0003 771.856 Q74.6154 771.856 76.9707 769.66 Q79.326 767.463 79.326 763.167 Q79.326 758.456 76.6525 756.101 Q73.9789 753.714 68.6317 753.714 L47.8476 753.714 L47.8476 747.857 L75.2838 747.857 Q77.1935 747.857 78.1166 747.316 Q79.0078 746.743 79.0078 745.565 Q79.0078 745.279 78.8486 744.77 Q78.6576 744.26 78.2757 743.369 L82.9863 743.369 Q83.7184 744.674 84.0685 745.852 Q84.4186 746.998 84.4186 748.112 Q84.4186 750.308 83.1773 751.613 Q81.936 752.918 79.3897 753.395 Q81.9042 754.987 83.1773 757.31 Q84.4186 759.602 84.4186 762.721 Q84.4186 765.967 83.1773 768.259 Q81.936 770.519 79.4534 771.856 L97.0545 771.856 L97.0545 777.712 Z" fill="#000000" fill-rule="evenodd" fill-opacity="1" /><circle clip-path="url(#clip083)" cx="356.839" cy="982.511" r="14.4" fill="#009af9" fill-rule="evenodd" fill-opacity="1" stroke="#000000" stroke-opacity="1" stroke-width="2.48"/>
<circle clip-path="url(#clip083)" cx="428.566" cy="982.511" r="14.4" fill="#009af9" fill-rule="evenodd" fill-opacity="1" stroke="#000000" stroke-opacity="1" stroke-width="2.48"/>
<circle clip-path="url(#clip083)" cx="494.574" cy="982.511" r="14.4" fill="#009af9" fill-rule="evenodd" fill-opacity="1" stroke="#000000" stroke-opacity="1" stroke-width="2.48"/>
<circle clip-path="url(#clip083)" cx="572.148" cy="982.511" r="14.4" fill="#009af9" fill-rule="evenodd" fill-opacity="1" stroke="#000000" stroke-opacity="1" stroke-width="2.48"/>
<circle clip-path="url(#clip083)" cx="683.113" cy="982.511" r="14.4" fill="#009af9" fill-rule="evenodd" fill-opacity="1" stroke="#000000" stroke-opacity="1" stroke-width="2.48"/>
<circle clip-path="url(#clip083)" cx="923.107" cy="982.511" r="14.4" fill="#009af9" fill-rule="evenodd" fill-opacity="1" stroke="#000000" stroke-opacity="1" stroke-width="2.48"/>
<circle clip-path="url(#clip083)" cx="356.839" cy="943.587" r="14.4" fill="#009af9" fill-rule="evenodd" fill-opacity="1" stroke="#000000" stroke-opacity="1" stroke-width="2.48"/>
<circle clip-path="url(#clip083)" cx="428.566" cy="943.587" r="14.4" fill="#009af9" fill-rule="evenodd" fill-opacity="1" stroke="#000000" stroke-opacity="1" stroke-width="2.48"/>
<circle clip-path="url(#clip083)" cx="494.574" cy="943.587" r="14.4" fill="#009af9" fill-rule="evenodd" fill-opacity="1" stroke="#000000" stroke-opacity="1" stroke-width="2.48"/>
<circle clip-path="url(#clip083)" cx="572.148" cy="943.587" r="14.4" fill="#009af9" fill-rule="evenodd" fill-opacity="1" stroke="#000000" stroke-opacity="1" stroke-width="2.48"/>
<circle clip-path="url(#clip083)" cx="683.113" cy="943.587" r="14.4" fill="#009af9" fill-rule="evenodd" fill-opacity="1" stroke="#000000" stroke-opacity="1" stroke-width="2.48"/>
<circle clip-path="url(#clip083)" cx="923.107" cy="943.587" r="14.4" fill="#009af9" fill-rule="evenodd" fill-opacity="1" stroke="#000000" stroke-opacity="1" stroke-width="2.48"/>
<circle clip-path="url(#clip083)" cx="356.839" cy="907.767" r="14.4" fill="#009af9" fill-rule="evenodd" fill-opacity="1" stroke="#000000" stroke-opacity="1" stroke-width="2.48"/>
<circle clip-path="url(#clip083)" cx="428.566" cy="907.767" r="14.4" fill="#009af9" fill-rule="evenodd" fill-opacity="1" stroke="#000000" stroke-opacity="1" stroke-width="2.48"/>
<circle clip-path="url(#clip083)" cx="494.574" cy="907.767" r="14.4" fill="#009af9" fill-rule="evenodd" fill-opacity="1" stroke="#000000" stroke-opacity="1" stroke-width="2.48"/>
<circle clip-path="url(#clip083)" cx="572.148" cy="907.767" r="14.4" fill="#009af9" fill-rule="evenodd" fill-opacity="1" stroke="#000000" stroke-opacity="1" stroke-width="2.48"/>
<circle clip-path="url(#clip083)" cx="683.113" cy="907.767" r="14.4" fill="#009af9" fill-rule="evenodd" fill-opacity="1" stroke="#000000" stroke-opacity="1" stroke-width="2.48"/>
<circle clip-path="url(#clip083)" cx="923.107" cy="907.767" r="14.4" fill="#009af9" fill-rule="evenodd" fill-opacity="1" stroke="#000000" stroke-opacity="1" stroke-width="2.48"/>
<circle clip-path="url(#clip083)" cx="356.839" cy="865.671" r="14.4" fill="#009af9" fill-rule="evenodd" fill-opacity="1" stroke="#000000" stroke-opacity="1" stroke-width="2.48"/>
<circle clip-path="url(#clip083)" cx="428.566" cy="865.671" r="14.4" fill="#009af9" fill-rule="evenodd" fill-opacity="1" stroke="#000000" stroke-opacity="1" stroke-width="2.48"/>
<circle clip-path="url(#clip083)" cx="494.574" cy="865.671" r="14.4" fill="#009af9" fill-rule="evenodd" fill-opacity="1" stroke="#000000" stroke-opacity="1" stroke-width="2.48"/>
<circle clip-path="url(#clip083)" cx="572.148" cy="865.671" r="14.4" fill="#009af9" fill-rule="evenodd" fill-opacity="1" stroke="#000000" stroke-opacity="1" stroke-width="2.48"/>
<circle clip-path="url(#clip083)" cx="683.113" cy="865.671" r="14.4" fill="#009af9" fill-rule="evenodd" fill-opacity="1" stroke="#000000" stroke-opacity="1" stroke-width="2.48"/>
<circle clip-path="url(#clip083)" cx="923.107" cy="865.671" r="14.4" fill="#009af9" fill-rule="evenodd" fill-opacity="1" stroke="#000000" stroke-opacity="1" stroke-width="2.48"/>
<circle clip-path="url(#clip083)" cx="356.839" cy="805.453" r="14.4" fill="#009af9" fill-rule="evenodd" fill-opacity="1" stroke="#000000" stroke-opacity="1" stroke-width="2.48"/>
<circle clip-path="url(#clip083)" cx="428.566" cy="805.453" r="14.4" fill="#009af9" fill-rule="evenodd" fill-opacity="1" stroke="#000000" stroke-opacity="1" stroke-width="2.48"/>
<circle clip-path="url(#clip083)" cx="494.574" cy="805.453" r="14.4" fill="#009af9" fill-rule="evenodd" fill-opacity="1" stroke="#000000" stroke-opacity="1" stroke-width="2.48"/>
<circle clip-path="url(#clip083)" cx="572.148" cy="805.453" r="14.4" fill="#009af9" fill-rule="evenodd" fill-opacity="1" stroke="#000000" stroke-opacity="1" stroke-width="2.48"/>
<circle clip-path="url(#clip083)" cx="683.113" cy="805.453" r="14.4" fill="#009af9" fill-rule="evenodd" fill-opacity="1" stroke="#000000" stroke-opacity="1" stroke-width="2.48"/>
<circle clip-path="url(#clip083)" cx="923.107" cy="805.453" r="14.4" fill="#009af9" fill-rule="evenodd" fill-opacity="1" stroke="#000000" stroke-opacity="1" stroke-width="2.48"/>
<circle clip-path="url(#clip083)" cx="356.839" cy="675.217" r="14.4" fill="#009af9" fill-rule="evenodd" fill-opacity="1" stroke="#000000" stroke-opacity="1" stroke-width="2.48"/>
<circle clip-path="url(#clip083)" cx="428.566" cy="675.217" r="14.4" fill="#009af9" fill-rule="evenodd" fill-opacity="1" stroke="#000000" stroke-opacity="1" stroke-width="2.48"/>
<circle clip-path="url(#clip083)" cx="494.574" cy="675.217" r="14.4" fill="#009af9" fill-rule="evenodd" fill-opacity="1" stroke="#000000" stroke-opacity="1" stroke-width="2.48"/>
<circle clip-path="url(#clip083)" cx="572.148" cy="675.217" r="14.4" fill="#009af9" fill-rule="evenodd" fill-opacity="1" stroke="#000000" stroke-opacity="1" stroke-width="2.48"/>
<circle clip-path="url(#clip083)" cx="683.113" cy="675.217" r="14.4" fill="#009af9" fill-rule="evenodd" fill-opacity="1" stroke="#000000" stroke-opacity="1" stroke-width="2.48"/>
<circle clip-path="url(#clip083)" cx="923.107" cy="675.217" r="14.4" fill="#009af9" fill-rule="evenodd" fill-opacity="1" stroke="#000000" stroke-opacity="1" stroke-width="2.48"/>
<circle clip-path="url(#clip083)" cx="530.968" cy="888.017" r="14.4" fill="#ff0000" fill-rule="evenodd" fill-opacity="1" stroke="#000000" stroke-opacity="1" stroke-width="2.48"/>
<path clip-path="url(#clip080)" d="M544.178 638.446 L1052.99 638.446 L1052.99 482.926 L544.178 482.926  Z" fill="#ffffff" fill-rule="evenodd" fill-opacity="1"/>
<polyline clip-path="url(#clip080)" style="stroke:#000000; stroke-linecap:round; stroke-linejoin:round; stroke-width:4; stroke-opacity:1; fill:none" points="544.178,638.446 1052.99,638.446 1052.99,482.926 544.178,482.926 544.178,638.446 "/>
<circle clip-path="url(#clip080)" cx="582.58" cy="534.766" r="23.04" fill="#009af9" fill-rule="evenodd" fill-opacity="1" stroke="#000000" stroke-opacity="1" stroke-width="3.968"/>
<path clip-path="url(#clip080)" d="M643.226 518.62 L643.226 523.18 Q640.564 521.907 638.203 521.282 Q635.842 520.657 633.643 520.657 Q629.823 520.657 627.74 522.138 Q625.68 523.62 625.68 526.351 Q625.68 528.643 627.046 529.823 Q628.435 530.981 632.277 531.698 L635.101 532.277 Q640.333 533.272 642.809 535.796 Q645.309 538.296 645.309 542.509 Q645.309 547.532 641.93 550.124 Q638.573 552.717 632.069 552.717 Q629.615 552.717 626.837 552.161 Q624.083 551.606 621.12 550.518 L621.12 545.703 Q623.967 547.3 626.698 548.11 Q629.43 548.921 632.069 548.921 Q636.073 548.921 638.249 547.346 Q640.425 545.772 640.425 542.856 Q640.425 540.309 638.851 538.874 Q637.3 537.439 633.735 536.722 L630.888 536.166 Q625.657 535.124 623.319 532.902 Q620.981 530.68 620.981 526.722 Q620.981 522.138 624.198 519.499 Q627.439 516.861 633.11 516.861 Q635.541 516.861 638.064 517.3 Q640.587 517.74 643.226 518.62 Z" fill="#000000" fill-rule="evenodd" fill-opacity="1" /><path clip-path="url(#clip080)" d="M656.629 518.759 L656.629 526.12 L665.402 526.12 L665.402 529.43 L656.629 529.43 L656.629 543.504 Q656.629 546.675 657.485 547.578 Q658.365 548.481 661.027 548.481 L665.402 548.481 L665.402 552.046 L661.027 552.046 Q656.096 552.046 654.221 550.217 Q652.346 548.365 652.346 543.504 L652.346 529.43 L649.221 529.43 L649.221 526.12 L652.346 526.12 L652.346 518.759 L656.629 518.759 Z" fill="#000000" fill-rule="evenodd" fill-opacity="1" /><path clip-path="url(#clip080)" d="M682.786 539.013 Q677.624 539.013 675.633 540.194 Q673.643 541.374 673.643 544.222 Q673.643 546.49 675.124 547.833 Q676.629 549.152 679.198 549.152 Q682.74 549.152 684.869 546.652 Q687.022 544.129 687.022 539.962 L687.022 539.013 L682.786 539.013 M691.281 537.254 L691.281 552.046 L687.022 552.046 L687.022 548.11 Q685.564 550.471 683.388 551.606 Q681.212 552.717 678.064 552.717 Q674.082 552.717 671.721 550.495 Q669.383 548.249 669.383 544.499 Q669.383 540.124 672.3 537.902 Q675.24 535.68 681.05 535.68 L687.022 535.68 L687.022 535.263 Q687.022 532.323 685.078 530.726 Q683.156 529.106 679.661 529.106 Q677.439 529.106 675.332 529.638 Q673.226 530.171 671.282 531.235 L671.282 527.3 Q673.619 526.398 675.819 525.958 Q678.018 525.495 680.101 525.495 Q685.726 525.495 688.504 528.411 Q691.281 531.328 691.281 537.254 Z" fill="#000000" fill-rule="evenodd" fill-opacity="1" /><path clip-path="url(#clip080)" d="M704.267 518.759 L704.267 526.12 L713.041 526.12 L713.041 529.43 L704.267 529.43 L704.267 543.504 Q704.267 546.675 705.124 547.578 Q706.004 548.481 708.666 548.481 L713.041 548.481 L713.041 552.046 L708.666 552.046 Q703.735 552.046 701.86 550.217 Q699.985 548.365 699.985 543.504 L699.985 529.43 L696.86 529.43 L696.86 526.12 L699.985 526.12 L699.985 518.759 L704.267 518.759 Z" fill="#000000" fill-rule="evenodd" fill-opacity="1" /><path clip-path="url(#clip080)" d="M740.818 538.018 L740.818 540.101 L721.235 540.101 Q721.513 544.499 723.874 546.814 Q726.258 549.106 730.494 549.106 Q732.948 549.106 735.239 548.504 Q737.554 547.902 739.823 546.698 L739.823 550.726 Q737.531 551.698 735.124 552.208 Q732.716 552.717 730.24 552.717 Q724.036 552.717 720.402 549.106 Q716.791 545.495 716.791 539.337 Q716.791 532.972 720.216 529.245 Q723.665 525.495 729.499 525.495 Q734.73 525.495 737.763 528.874 Q740.818 532.231 740.818 538.018 M736.559 536.768 Q736.513 533.272 734.591 531.189 Q732.693 529.106 729.545 529.106 Q725.98 529.106 723.828 531.12 Q721.698 533.134 721.374 536.791 L736.559 536.768 Z" fill="#000000" fill-rule="evenodd" fill-opacity="1" /><path clip-path="url(#clip080)" d="M764.337 526.884 L764.337 530.911 Q762.531 529.985 760.587 529.523 Q758.642 529.06 756.559 529.06 Q753.388 529.06 751.79 530.032 Q750.216 531.004 750.216 532.948 Q750.216 534.43 751.351 535.286 Q752.485 536.12 755.911 536.884 L757.369 537.208 Q761.906 538.18 763.804 539.962 Q765.725 541.722 765.725 544.893 Q765.725 548.504 762.855 550.61 Q760.008 552.717 755.008 552.717 Q752.925 552.717 750.656 552.3 Q748.411 551.907 745.911 551.096 L745.911 546.698 Q748.272 547.925 750.563 548.55 Q752.855 549.152 755.1 549.152 Q758.11 549.152 759.73 548.134 Q761.35 547.092 761.35 545.217 Q761.35 543.481 760.17 542.555 Q759.013 541.629 755.054 540.772 L753.573 540.425 Q749.614 539.592 747.855 537.879 Q746.096 536.143 746.096 533.134 Q746.096 529.476 748.688 527.485 Q751.281 525.495 756.05 525.495 Q758.411 525.495 760.494 525.842 Q762.577 526.189 764.337 526.884 Z" fill="#000000" fill-rule="evenodd" fill-opacity="1" /><circle clip-path="url(#clip080)" cx="582.58" cy="586.606" r="23.04" fill="#ff0000" fill-rule="evenodd" fill-opacity="1" stroke="#000000" stroke-opacity="1" stroke-width="3.968"/>
<path clip-path="url(#clip080)" d="M620.981 569.326 L627.948 569.326 L636.768 592.844 L645.633 569.326 L652.601 569.326 L652.601 603.886 L648.041 603.886 L648.041 573.538 L639.129 597.242 L634.43 597.242 L625.518 573.538 L625.518 603.886 L620.981 603.886 L620.981 569.326 Z" fill="#000000" fill-rule="evenodd" fill-opacity="1" /><path clip-path="url(#clip080)" d="M661.883 569.326 L666.559 569.326 L666.559 599.95 L683.388 599.95 L683.388 603.886 L661.883 603.886 L661.883 569.326 Z" fill="#000000" fill-rule="evenodd" fill-opacity="1" /><path clip-path="url(#clip080)" d="M688.295 569.326 L710.147 569.326 L710.147 573.261 L692.971 573.261 L692.971 583.492 L709.429 583.492 L709.429 587.427 L692.971 587.427 L692.971 599.95 L710.564 599.95 L710.564 603.886 L688.295 603.886 L688.295 569.326 Z" fill="#000000" fill-rule="evenodd" fill-opacity="1" /><path clip-path="url(#clip080)" d="M749.661 578.724 L749.661 582.751 Q747.855 581.825 745.911 581.363 Q743.966 580.9 741.883 580.9 Q738.712 580.9 737.114 581.872 Q735.54 582.844 735.54 584.788 Q735.54 586.27 736.675 587.126 Q737.809 587.96 741.235 588.724 L742.693 589.048 Q747.23 590.02 749.128 591.802 Q751.05 593.562 751.05 596.733 Q751.05 600.344 748.179 602.45 Q745.332 604.557 740.332 604.557 Q738.249 604.557 735.98 604.14 Q733.735 603.747 731.235 602.936 L731.235 598.538 Q733.596 599.765 735.888 600.39 Q738.179 600.992 740.425 600.992 Q743.434 600.992 745.054 599.974 Q746.675 598.932 746.675 597.057 Q746.675 595.321 745.494 594.395 Q744.337 593.469 740.378 592.612 L738.897 592.265 Q734.939 591.432 733.179 589.719 Q731.42 587.983 731.42 584.974 Q731.42 581.316 734.013 579.325 Q736.605 577.335 741.374 577.335 Q743.735 577.335 745.818 577.682 Q747.901 578.029 749.661 578.724 Z" fill="#000000" fill-rule="evenodd" fill-opacity="1" /><path clip-path="url(#clip080)" d="M757.832 577.96 L762.091 577.96 L762.091 603.886 L757.832 603.886 L757.832 577.96 M757.832 567.867 L762.091 567.867 L762.091 573.261 L757.832 573.261 L757.832 567.867 Z" fill="#000000" fill-rule="evenodd" fill-opacity="1" /><path clip-path="url(#clip080)" d="M791.188 582.937 Q792.785 580.066 795.008 578.7 Q797.23 577.335 800.239 577.335 Q804.29 577.335 806.489 580.182 Q808.688 583.006 808.688 588.237 L808.688 603.886 L804.406 603.886 L804.406 588.376 Q804.406 584.65 803.086 582.844 Q801.767 581.038 799.059 581.038 Q795.748 581.038 793.827 583.238 Q791.906 585.437 791.906 589.233 L791.906 603.886 L787.623 603.886 L787.623 588.376 Q787.623 584.626 786.304 582.844 Q784.985 581.038 782.23 581.038 Q778.966 581.038 777.045 583.261 Q775.124 585.46 775.124 589.233 L775.124 603.886 L770.841 603.886 L770.841 577.96 L775.124 577.96 L775.124 581.988 Q776.582 579.603 778.619 578.469 Q780.656 577.335 783.457 577.335 Q786.281 577.335 788.248 578.77 Q790.239 580.205 791.188 582.937 Z" fill="#000000" fill-rule="evenodd" fill-opacity="1" /><path clip-path="url(#clip080)" d="M821.304 599.997 L821.304 613.747 L817.021 613.747 L817.021 577.96 L821.304 577.96 L821.304 581.895 Q822.646 579.58 824.683 578.469 Q826.744 577.335 829.591 577.335 Q834.313 577.335 837.253 581.085 Q840.216 584.835 840.216 590.946 Q840.216 597.057 837.253 600.807 Q834.313 604.557 829.591 604.557 Q826.744 604.557 824.683 603.446 Q822.646 602.311 821.304 599.997 M835.795 590.946 Q835.795 586.247 833.85 583.585 Q831.929 580.9 828.549 580.9 Q825.17 580.9 823.225 583.585 Q821.304 586.247 821.304 590.946 Q821.304 595.645 823.225 598.33 Q825.17 600.992 828.549 600.992 Q831.929 600.992 833.85 598.33 Q835.795 595.645 835.795 590.946 Z" fill="#000000" fill-rule="evenodd" fill-opacity="1" /><path clip-path="url(#clip080)" d="M847.276 567.867 L851.535 567.867 L851.535 603.886 L847.276 603.886 L847.276 567.867 Z" fill="#000000" fill-rule="evenodd" fill-opacity="1" /><path clip-path="url(#clip080)" d="M882.623 589.858 L882.623 591.941 L863.04 591.941 Q863.318 596.339 865.679 598.654 Q868.063 600.946 872.299 600.946 Q874.753 600.946 877.044 600.344 Q879.359 599.742 881.628 598.538 L881.628 602.566 Q879.336 603.538 876.929 604.048 Q874.521 604.557 872.044 604.557 Q865.841 604.557 862.206 600.946 Q858.595 597.335 858.595 591.177 Q858.595 584.812 862.021 581.085 Q865.47 577.335 871.304 577.335 Q876.535 577.335 879.567 580.714 Q882.623 584.071 882.623 589.858 M878.364 588.608 Q878.317 585.112 876.396 583.029 Q874.498 580.946 871.35 580.946 Q867.785 580.946 865.632 582.96 Q863.503 584.974 863.179 588.631 L878.364 588.608 Z" fill="#000000" fill-rule="evenodd" fill-opacity="1" /><path clip-path="url(#clip080)" d="M924.868 582.937 Q926.465 580.066 928.688 578.7 Q930.91 577.335 933.919 577.335 Q937.97 577.335 940.169 580.182 Q942.368 583.006 942.368 588.237 L942.368 603.886 L938.086 603.886 L938.086 588.376 Q938.086 584.65 936.766 582.844 Q935.447 581.038 932.738 581.038 Q929.428 581.038 927.507 583.238 Q925.586 585.437 925.586 589.233 L925.586 603.886 L921.303 603.886 L921.303 588.376 Q921.303 584.626 919.984 582.844 Q918.664 581.038 915.91 581.038 Q912.646 581.038 910.725 583.261 Q908.803 585.46 908.803 589.233 L908.803 603.886 L904.521 603.886 L904.521 577.96 L908.803 577.96 L908.803 581.988 Q910.262 579.603 912.299 578.469 Q914.336 577.335 917.137 577.335 Q919.961 577.335 921.928 578.77 Q923.919 580.205 924.868 582.937 Z" fill="#000000" fill-rule="evenodd" fill-opacity="1" /><path clip-path="url(#clip080)" d="M960.91 580.946 Q957.484 580.946 955.493 583.631 Q953.502 586.293 953.502 590.946 Q953.502 595.599 955.47 598.284 Q957.461 600.946 960.91 600.946 Q964.312 600.946 966.303 598.261 Q968.294 595.575 968.294 590.946 Q968.294 586.339 966.303 583.654 Q964.312 580.946 960.91 580.946 M960.91 577.335 Q966.465 577.335 969.636 580.946 Q972.808 584.557 972.808 590.946 Q972.808 597.312 969.636 600.946 Q966.465 604.557 960.91 604.557 Q955.331 604.557 952.16 600.946 Q949.011 597.312 949.011 590.946 Q949.011 584.557 952.16 580.946 Q955.331 577.335 960.91 577.335 Z" fill="#000000" fill-rule="evenodd" fill-opacity="1" /><path clip-path="url(#clip080)" d="M996.928 581.895 L996.928 567.867 L1001.19 567.867 L1001.19 603.886 L996.928 603.886 L996.928 599.997 Q995.585 602.311 993.525 603.446 Q991.488 604.557 988.618 604.557 Q983.919 604.557 980.956 600.807 Q978.016 597.057 978.016 590.946 Q978.016 584.835 980.956 581.085 Q983.919 577.335 988.618 577.335 Q991.488 577.335 993.525 578.469 Q995.585 579.58 996.928 581.895 M982.414 590.946 Q982.414 595.645 984.335 598.33 Q986.28 600.992 989.659 600.992 Q993.039 600.992 994.983 598.33 Q996.928 595.645 996.928 590.946 Q996.928 586.247 994.983 583.585 Q993.039 580.9 989.659 580.9 Q986.28 580.9 984.335 583.585 Q982.414 586.247 982.414 590.946 Z" fill="#000000" fill-rule="evenodd" fill-opacity="1" /><path clip-path="url(#clip080)" d="M1032.14 589.858 L1032.14 591.941 L1012.55 591.941 Q1012.83 596.339 1015.19 598.654 Q1017.58 600.946 1021.81 600.946 Q1024.27 600.946 1026.56 600.344 Q1028.87 599.742 1031.14 598.538 L1031.14 602.566 Q1028.85 603.538 1026.44 604.048 Q1024.03 604.557 1021.56 604.557 Q1015.35 604.557 1011.72 600.946 Q1008.11 597.335 1008.11 591.177 Q1008.11 584.812 1011.53 581.085 Q1014.98 577.335 1020.82 577.335 Q1026.05 577.335 1029.08 580.714 Q1032.14 584.071 1032.14 589.858 M1027.88 588.608 Q1027.83 585.112 1025.91 583.029 Q1024.01 580.946 1020.86 580.946 Q1017.3 580.946 1015.15 582.96 Q1013.02 584.974 1012.69 588.631 L1027.88 588.608 Z" fill="#000000" fill-rule="evenodd" fill-opacity="1" /><path clip-path="url(#clip080)" d="M1039.13 567.867 L1043.39 567.867 L1043.39 603.886 L1039.13 603.886 L1039.13 567.867 Z" fill="#000000" fill-rule="evenodd" fill-opacity="1" /><path clip-path="url(#clip080)" d="M1262.46 1057.99 L1632.76 1057.99 L1632.76 463.096 L1262.46 463.096  Z" fill="#ffffff" fill-rule="evenodd" fill-opacity="1"/>
<defs>
  <clipPath id="clip084">
    <rect x="1262" y="463" width="371" height="596"/>
  </clipPath>
</defs>
<polyline clip-path="url(#clip080)" style="stroke:#000000; stroke-linecap:round; stroke-linejoin:round; stroke-width:4; stroke-opacity:1; fill:none" points="1262.46,1057.99 1632.76,1057.99 "/>
<polyline clip-path="url(#clip080)" style="stroke:#000000; stroke-linecap:round; stroke-linejoin:round; stroke-width:4; stroke-opacity:1; fill:none" points="1262.46,1057.99 1262.46,463.096 "/>
<polyline clip-path="url(#clip080)" style="stroke:#000000; stroke-linecap:round; stroke-linejoin:round; stroke-width:4; stroke-opacity:1; fill:none" points="1262.46,982.511 1281.36,982.511 "/>
<polyline clip-path="url(#clip080)" style="stroke:#000000; stroke-linecap:round; stroke-linejoin:round; stroke-width:4; stroke-opacity:1; fill:none" points="1262.46,943.587 1281.36,943.587 "/>
<polyline clip-path="url(#clip080)" style="stroke:#000000; stroke-linecap:round; stroke-linejoin:round; stroke-width:4; stroke-opacity:1; fill:none" points="1262.46,907.767 1281.36,907.767 "/>
<polyline clip-path="url(#clip080)" style="stroke:#000000; stroke-linecap:round; stroke-linejoin:round; stroke-width:4; stroke-opacity:1; fill:none" points="1262.46,865.671 1281.36,865.671 "/>
<polyline clip-path="url(#clip080)" style="stroke:#000000; stroke-linecap:round; stroke-linejoin:round; stroke-width:4; stroke-opacity:1; fill:none" points="1262.46,805.453 1281.36,805.453 "/>
<polyline clip-path="url(#clip080)" style="stroke:#000000; stroke-linecap:round; stroke-linejoin:round; stroke-width:4; stroke-opacity:1; fill:none" points="1262.46,675.217 1281.36,675.217 "/>
<path clip-path="url(#clip080)" d="M1184.11 1009.65 L1184.11 973.865 L1188.37 973.865 L1188.37 989.976 Q1188.37 993.333 1189.97 995.046 Q1191.56 996.759 1194.69 996.759 Q1198.11 996.759 1199.83 994.814 Q1201.56 992.87 1201.56 988.981 L1201.56 973.865 L1205.82 973.865 L1205.82 993.819 Q1205.82 995.208 1206.22 995.879 Q1206.63 996.527 1207.49 996.527 Q1207.7 996.527 1208.07 996.411 Q1208.44 996.273 1209.09 995.995 L1209.09 999.421 Q1208.14 999.953 1207.28 1000.21 Q1206.45 1000.46 1205.64 1000.46 Q1204.04 1000.46 1203.09 999.56 Q1202.14 998.657 1201.79 996.805 Q1200.64 998.634 1198.95 999.56 Q1197.28 1000.46 1195.01 1000.46 Q1192.65 1000.46 1190.98 999.56 Q1189.34 998.657 1188.37 996.851 L1188.37 1009.65 L1184.11 1009.65 Z" fill="#000000" fill-rule="evenodd" fill-opacity="1" /><path clip-path="url(#clip080)" d="M1225.31 968.31 Q1221.7 968.31 1219.87 971.874 Q1218.07 975.416 1218.07 982.546 Q1218.07 989.652 1219.87 993.217 Q1221.7 996.759 1225.31 996.759 Q1228.95 996.759 1230.75 993.217 Q1232.58 989.652 1232.58 982.546 Q1232.58 975.416 1230.75 971.874 Q1228.95 968.31 1225.31 968.31 M1225.31 964.606 Q1231.12 964.606 1234.18 969.212 Q1237.26 973.796 1237.26 982.546 Q1237.26 991.273 1234.18 995.879 Q1231.12 1000.46 1225.31 1000.46 Q1219.5 1000.46 1216.42 995.879 Q1213.37 991.273 1213.37 982.546 Q1213.37 973.796 1216.42 969.212 Q1219.5 964.606 1225.31 964.606 Z" fill="#000000" fill-rule="evenodd" fill-opacity="1" /><path clip-path="url(#clip080)" d="M1185.34 970.728 L1185.34 934.941 L1189.6 934.941 L1189.6 951.052 Q1189.6 954.409 1191.19 956.122 Q1192.79 957.835 1195.92 957.835 Q1199.34 957.835 1201.05 955.89 Q1202.79 953.946 1202.79 950.057 L1202.79 934.941 L1207.05 934.941 L1207.05 954.895 Q1207.05 956.284 1207.44 956.955 Q1207.86 957.603 1208.72 957.603 Q1208.92 957.603 1209.29 957.487 Q1209.67 957.349 1210.31 957.071 L1210.31 960.497 Q1209.36 961.029 1208.51 961.284 Q1207.67 961.538 1206.86 961.538 Q1205.27 961.538 1204.32 960.636 Q1203.37 959.733 1203.02 957.881 Q1201.86 959.71 1200.17 960.636 Q1198.51 961.538 1196.24 961.538 Q1193.88 961.538 1192.21 960.636 Q1190.57 959.733 1189.6 957.927 L1189.6 970.728 L1185.34 970.728 Z" fill="#000000" fill-rule="evenodd" fill-opacity="1" /><path clip-path="url(#clip080)" d="M1217.35 956.932 L1224.99 956.932 L1224.99 930.566 L1216.68 932.233 L1216.68 927.974 L1224.94 926.307 L1229.62 926.307 L1229.62 956.932 L1237.26 956.932 L1237.26 960.867 L1217.35 960.867 L1217.35 956.932 Z" fill="#000000" fill-rule="evenodd" fill-opacity="1" /><path clip-path="url(#clip080)" d="M1185.71 934.908 L1185.71 899.121 L1189.97 899.121 L1189.97 915.232 Q1189.97 918.589 1191.56 920.302 Q1193.16 922.015 1196.29 922.015 Q1199.71 922.015 1201.42 920.07 Q1203.16 918.126 1203.16 914.237 L1203.16 899.121 L1207.42 899.121 L1207.42 919.075 Q1207.42 920.464 1207.81 921.135 Q1208.23 921.783 1209.09 921.783 Q1209.29 921.783 1209.67 921.667 Q1210.04 921.528 1210.68 921.251 L1210.68 924.677 Q1209.73 925.209 1208.88 925.464 Q1208.04 925.718 1207.23 925.718 Q1205.64 925.718 1204.69 924.815 Q1203.74 923.913 1203.39 922.061 Q1202.23 923.89 1200.54 924.815 Q1198.88 925.718 1196.61 925.718 Q1194.25 925.718 1192.58 924.815 Q1190.94 923.913 1189.97 922.107 L1189.97 934.908 L1185.71 934.908 Z" fill="#000000" fill-rule="evenodd" fill-opacity="1" /><path clip-path="url(#clip080)" d="M1220.94 921.112 L1237.26 921.112 L1237.26 925.047 L1215.31 925.047 L1215.31 921.112 Q1217.98 918.357 1222.56 913.728 Q1227.16 909.075 1228.35 907.732 Q1230.59 905.209 1231.47 903.473 Q1232.37 901.714 1232.37 900.024 Q1232.37 897.269 1230.43 895.533 Q1228.51 893.797 1225.41 893.797 Q1223.21 893.797 1220.75 894.561 Q1218.32 895.325 1215.54 896.876 L1215.54 892.154 Q1218.37 891.019 1220.82 890.441 Q1223.28 889.862 1225.31 889.862 Q1230.68 889.862 1233.88 892.547 Q1237.07 895.232 1237.07 899.723 Q1237.07 901.853 1236.26 903.774 Q1235.48 905.672 1233.37 908.265 Q1232.79 908.936 1229.69 912.154 Q1226.59 915.348 1220.94 921.112 Z" fill="#000000" fill-rule="evenodd" fill-opacity="1" /><path clip-path="url(#clip080)" d="M1184.76 892.812 L1184.76 857.025 L1189.02 857.025 L1189.02 873.136 Q1189.02 876.492 1190.61 878.205 Q1192.21 879.918 1195.34 879.918 Q1198.76 879.918 1200.48 877.974 Q1202.21 876.029 1202.21 872.14 L1202.21 857.025 L1206.47 857.025 L1206.47 876.978 Q1206.47 878.367 1206.86 879.039 Q1207.28 879.687 1208.14 879.687 Q1208.35 879.687 1208.72 879.571 Q1209.09 879.432 1209.73 879.154 L1209.73 882.58 Q1208.79 883.113 1207.93 883.367 Q1207.1 883.622 1206.29 883.622 Q1204.69 883.622 1203.74 882.719 Q1202.79 881.816 1202.44 879.964 Q1201.29 881.793 1199.6 882.719 Q1197.93 883.622 1195.66 883.622 Q1193.3 883.622 1191.63 882.719 Q1189.99 881.816 1189.02 880.011 L1189.02 892.812 L1184.76 892.812 Z" fill="#000000" fill-rule="evenodd" fill-opacity="1" /><path clip-path="url(#clip080)" d="M1230.13 864.316 Q1233.48 865.034 1235.36 867.303 Q1237.26 869.571 1237.26 872.904 Q1237.26 878.02 1233.74 880.821 Q1230.22 883.622 1223.74 883.622 Q1221.56 883.622 1219.25 883.182 Q1216.96 882.765 1214.5 881.909 L1214.5 877.395 Q1216.45 878.529 1218.76 879.108 Q1221.08 879.687 1223.6 879.687 Q1228 879.687 1230.29 877.951 Q1232.6 876.215 1232.6 872.904 Q1232.6 869.849 1230.45 868.136 Q1228.32 866.4 1224.5 866.4 L1220.48 866.4 L1220.48 862.557 L1224.69 862.557 Q1228.14 862.557 1229.97 861.191 Q1231.79 859.803 1231.79 857.21 Q1231.79 854.548 1229.9 853.136 Q1228.02 851.701 1224.5 851.701 Q1222.58 851.701 1220.38 852.117 Q1218.18 852.534 1215.54 853.414 L1215.54 849.247 Q1218.21 848.506 1220.52 848.136 Q1222.86 847.766 1224.92 847.766 Q1230.24 847.766 1233.35 850.196 Q1236.45 852.604 1236.45 856.724 Q1236.45 859.594 1234.8 861.585 Q1233.16 863.553 1230.13 864.316 Z" fill="#000000" fill-rule="evenodd" fill-opacity="1" /><path clip-path="url(#clip080)" d="M1183.62 832.594 L1183.62 796.808 L1187.88 796.808 L1187.88 812.919 Q1187.88 816.275 1189.48 817.988 Q1191.08 819.701 1194.2 819.701 Q1197.63 819.701 1199.34 817.757 Q1201.08 815.812 1201.08 811.923 L1201.08 796.808 L1205.34 796.808 L1205.34 816.761 Q1205.34 818.15 1205.73 818.821 Q1206.15 819.47 1207 819.47 Q1207.21 819.47 1207.58 819.354 Q1207.95 819.215 1208.6 818.937 L1208.6 822.363 Q1207.65 822.895 1206.79 823.15 Q1205.96 823.405 1205.15 823.405 Q1203.55 823.405 1202.6 822.502 Q1201.66 821.599 1201.31 819.747 Q1200.15 821.576 1198.46 822.502 Q1196.79 823.405 1194.53 823.405 Q1192.17 823.405 1190.5 822.502 Q1188.85 821.599 1187.88 819.794 L1187.88 832.594 L1183.62 832.594 Z" fill="#000000" fill-rule="evenodd" fill-opacity="1" /><path clip-path="url(#clip080)" d="M1227.67 792.247 L1215.87 810.696 L1227.67 810.696 L1227.67 792.247 M1226.45 788.173 L1232.33 788.173 L1232.33 810.696 L1237.26 810.696 L1237.26 814.585 L1232.33 814.585 L1232.33 822.733 L1227.67 822.733 L1227.67 814.585 L1212.07 814.585 L1212.07 810.071 L1226.45 788.173 Z" fill="#000000" fill-rule="evenodd" fill-opacity="1" /><path clip-path="url(#clip080)" d="M1185.11 702.358 L1185.11 666.571 L1189.36 666.571 L1189.36 682.682 Q1189.36 686.039 1190.96 687.752 Q1192.56 689.465 1195.68 689.465 Q1199.11 689.465 1200.82 687.52 Q1202.56 685.576 1202.56 681.687 L1202.56 666.571 L1206.82 666.571 L1206.82 686.525 Q1206.82 687.914 1207.21 688.585 Q1207.63 689.233 1208.48 689.233 Q1208.69 689.233 1209.06 689.117 Q1209.43 688.978 1210.08 688.701 L1210.08 692.127 Q1209.13 692.659 1208.28 692.914 Q1207.44 693.168 1206.63 693.168 Q1205.04 693.168 1204.09 692.266 Q1203.14 691.363 1202.79 689.511 Q1201.63 691.34 1199.94 692.266 Q1198.28 693.168 1196.01 693.168 Q1193.65 693.168 1191.98 692.266 Q1190.34 691.363 1189.36 689.557 L1189.36 702.358 L1185.11 702.358 Z" fill="#000000" fill-rule="evenodd" fill-opacity="1" /><path clip-path="url(#clip080)" d="M1216.35 657.937 L1234.71 657.937 L1234.71 661.872 L1220.64 661.872 L1220.64 670.344 Q1221.66 669.997 1222.67 669.835 Q1223.69 669.65 1224.71 669.65 Q1230.5 669.65 1233.88 672.821 Q1237.26 675.992 1237.26 681.409 Q1237.26 686.988 1233.79 690.09 Q1230.31 693.168 1223.99 693.168 Q1221.82 693.168 1219.55 692.798 Q1217.3 692.428 1214.9 691.687 L1214.9 686.988 Q1216.98 688.122 1219.2 688.678 Q1221.42 689.233 1223.9 689.233 Q1227.91 689.233 1230.24 687.127 Q1232.58 685.02 1232.58 681.409 Q1232.58 677.798 1230.24 675.692 Q1227.91 673.585 1223.9 673.585 Q1222.03 673.585 1220.15 674.002 Q1218.3 674.418 1216.35 675.298 L1216.35 657.937 Z" fill="#000000" fill-rule="evenodd" fill-opacity="1" /><polyline clip-path="url(#clip084)" style="stroke:#009af9; stroke-linecap:round; stroke-linejoin:round; stroke-width:4; stroke-opacity:1; fill:none" points="1272.94,1057.99 1272.95,1049.49 1274.28,1040.99 1283.51,1032.49 1307.22,1023.99 1345.29,1015.49 1392.58,1007 1442.72,998.497 1490.38,989.998 1532.04,981.5 1565.87,973.001 1591.29,964.503 1608.61,956.004 1618.6,947.506 1622.28,939.008 1620.71,930.509 1614.95,922.011 1605.94,913.512 1594.51,905.014 1581.35,896.516 1567.05,888.017 1552.08,879.519 1536.81,871.02 1521.54,862.522 1506.49,854.023 1491.83,845.525 1477.67,837.027 1464.11,828.528 1451.19,820.03 1438.95,811.531 1427.4,803.033 1416.53,794.534 1406.35,786.036 1396.82,777.538 1387.92,769.039 1379.63,760.541 1371.91,752.042 1364.74,743.544 1358.08,735.045 1351.9,726.547 1346.17,718.049 1340.86,709.55 1335.94,701.052 1331.39,692.553 1327.18,684.055 1323.28,675.556 1319.67,667.058 1316.33,658.56 1313.24,650.061 1310.38,641.563 1307.73,633.064 1305.28,624.566 1303.01,616.068 1300.91,607.569 1298.96,599.071 1297.16,590.572 1295.49,582.074 1293.95,573.575 1292.51,565.077 1291.18,556.579 1289.95,548.08 "/>
<polyline clip-path="url(#clip084)" style="stroke:#008000; stroke-linecap:round; stroke-linejoin:round; stroke-width:4; stroke-opacity:0.3; fill:none" points="1272.94,982.511 1527.48,982.511 "/>
<polyline clip-path="url(#clip084)" style="stroke:#008000; stroke-linecap:round; stroke-linejoin:round; stroke-width:4; stroke-opacity:0.3; fill:none" points="1272.94,943.587 1621.02,943.587 "/>
<polyline clip-path="url(#clip084)" style="stroke:#008000; stroke-linecap:round; stroke-linejoin:round; stroke-width:4; stroke-opacity:0.3; fill:none" points="1272.94,907.767 1598.43,907.767 "/>
<polyline clip-path="url(#clip084)" style="stroke:#008000; stroke-linecap:round; stroke-linejoin:round; stroke-width:4; stroke-opacity:0.3; fill:none" points="1272.94,865.671 1527.18,865.671 "/>
<polyline clip-path="url(#clip084)" style="stroke:#008000; stroke-linecap:round; stroke-linejoin:round; stroke-width:4; stroke-opacity:0.3; fill:none" points="1272.94,805.453 1430.62,805.453 "/>
<polyline clip-path="url(#clip084)" style="stroke:#008000; stroke-linecap:round; stroke-linejoin:round; stroke-width:4; stroke-opacity:0.3; fill:none" points="1272.94,675.217 1323.13,675.217 "/>
</svg>
